<?xml version="1.0" encoding="UTF-8"?>
<svg xmlns="http://www.w3.org/2000/svg" viewBox="0 0 128 128" width="128" height="128">
  <defs>
    <linearGradient id="bg" x1="0%" y1="0%" x2="100%" y2="100%">
      <stop offset="0%" stop-color="#3584e4"/>
      <stop offset="100%" stop-color="#1a5fb4"/>
    </linearGradient>
  </defs>
  <rect x="8" y="8" width="112" height="112" rx="28" fill="url(#bg)"/>
  <!-- gear hub -->
  <circle cx="64" cy="64" r="22" fill="none" stroke="#ffffff" stroke-width="8"/>
  <circle cx="64" cy="64" r="8" fill="#ffffff"/>
  <!-- gear teeth -->
  <g fill="#ffffff">
    <rect x="58" y="28" width="12" height="18" rx="3"/>
    <rect x="58" y="82" width="12" height="18" rx="3"/>
    <rect x="28" y="58" width="18" height="12" rx="3"/>
    <rect x="82" y="58" width="18" height="12" rx="3"/>
    <rect x="36.5" y="36.5" width="12" height="18" rx="3" transform="rotate(-45 42.5 45.5)"/>
    <rect x="79.5" y="36.5" width="12" height="18" rx="3" transform="rotate(45 85.5 45.5)"/>
    <rect x="36.5" y="73.5" width="12" height="18" rx="3" transform="rotate(45 42.5 82.5)"/>
    <rect x="79.5" y="73.5" width="12" height="18" rx="3" transform="rotate(-45 85.5 82.5)"/>
  </g>
</svg>
